<svg width="15" height="14" viewBox="0 0 15 14" fill="none" xmlns="http://www.w3.org/2000/svg">
<path d="M10.7812 0.93536C10.5966 0.93536 10.4137 0.97156 10.2431 1.04189C10.0725 1.11223 9.91746 1.21531 9.78688 1.34527C9.6563 1.47523 9.55272 1.62952 9.48204 1.79931C9.41137 1.96911 9.375 2.1511 9.375 2.33489C9.375 2.51868 9.41137 2.70067 9.48204 2.87047C9.55272 3.04027 9.6563 3.19455 9.78688 3.32451C9.91746 3.45447 10.0725 3.55756 10.2431 3.62789C10.4137 3.69822 10.5966 3.73442 10.7812 3.73442C11.1542 3.73442 11.5119 3.58697 11.7756 3.32451C12.0393 3.06205 12.1875 2.70607 12.1875 2.33489C12.1875 1.96371 12.0393 1.60774 11.7756 1.34527C11.5119 1.08281 11.1542 0.93536 10.7812 0.93536ZM8.48438 1.86838C8.59196 1.34109 8.8794 0.867028 9.298 0.52652C9.7166 0.186013 10.2406 0 10.7812 0C11.3219 0 11.8459 0.186013 12.2645 0.52652C12.6831 0.867028 12.9705 1.34109 13.0781 1.86838H15V2.8014H13.0781C12.9705 3.32869 12.6831 3.80276 12.2645 4.14326C11.8459 4.48377 11.3219 4.66978 10.7812 4.66978C10.2406 4.66978 9.7166 4.48377 9.298 4.14326C8.8794 3.80276 8.59196 3.32869 8.48438 2.8014H0V1.86838H8.48438ZM4.21875 5.60047C3.84579 5.60047 3.4881 5.74792 3.22438 6.01038C2.96066 6.27284 2.8125 6.62882 2.8125 7C2.8125 7.37118 2.96066 7.72716 3.22438 7.98962C3.4881 8.25208 3.84579 8.39953 4.21875 8.39953C4.59171 8.39953 4.9494 8.25208 5.21312 7.98962C5.47684 7.72716 5.625 7.37118 5.625 7C5.625 6.62882 5.47684 6.27284 5.21312 6.01038C4.9494 5.74792 4.59171 5.60047 4.21875 5.60047ZM1.92188 6.53349C2.02946 6.0062 2.3169 5.53214 2.7355 5.19163C3.1541 4.85112 3.67811 4.66511 4.21875 4.66511C4.75939 4.66511 5.2834 4.85112 5.702 5.19163C6.1206 5.53214 6.40804 6.0062 6.51562 6.53349H15V7.46651H6.51562C6.40804 7.9938 6.1206 8.46786 5.702 8.80837C5.2834 9.14888 4.75939 9.33489 4.21875 9.33489C3.67811 9.33489 3.1541 9.14888 2.7355 8.80837C2.3169 8.46786 2.02946 7.9938 1.92188 7.46651H0V6.53349H1.92188ZM10.7812 10.2656C10.4083 10.2656 10.0506 10.413 9.78688 10.6755C9.52316 10.938 9.375 11.2939 9.375 11.6651C9.375 12.0363 9.52316 12.3923 9.78688 12.6547C10.0506 12.9172 10.4083 13.0646 10.7812 13.0646C11.1542 13.0646 11.5119 12.9172 11.7756 12.6547C12.0393 12.3923 12.1875 12.0363 12.1875 11.6651C12.1875 11.2939 12.0393 10.938 11.7756 10.6755C11.5119 10.413 11.1542 10.2656 10.7812 10.2656ZM8.48438 11.1986C8.59196 10.6713 8.8794 10.1972 9.298 9.85674C9.7166 9.51623 10.2406 9.33022 10.7812 9.33022C11.3219 9.33022 11.8459 9.51623 12.2645 9.85674C12.6831 10.1972 12.9705 10.6713 13.0781 11.1986H15V12.1316H13.0781C12.9705 12.6589 12.6831 13.133 12.2645 13.4735C11.8459 13.814 11.3219 14 10.7812 14C10.2406 14 9.7166 13.814 9.298 13.4735C8.8794 13.133 8.59196 12.6589 8.48438 12.1316H0V11.1986H8.48438Z" fill="#FBAF5A"/>
</svg>
