<svg width="40" height="40" viewBox="0 0 40 40" fill="none" xmlns="http://www.w3.org/2000/svg">
<path fill-rule="evenodd" clip-rule="evenodd" d="M19.9999 26.8707C23.916 26.8707 27.0906 23.8009 27.0906 20.0141C27.0906 16.2273 23.916 13.1575 19.9999 13.1575C16.0838 13.1575 12.9092 16.2273 12.9092 20.0141C12.9092 23.8009 16.0838 26.8707 19.9999 26.8707ZM19.9999 24.5858C22.6106 24.5858 24.7267 22.5395 24.7267 20.015C24.7267 17.4905 22.6106 15.4443 19.9999 15.4443C17.3892 15.4443 15.2731 17.4905 15.2731 20.015C15.2731 22.5395 17.3892 24.5858 19.9999 24.5858Z" fill="#212A42"/>
<path d="M27.0906 12.0151C26.438 12.0151 25.9092 12.5265 25.9092 13.1576C25.9092 13.7887 26.438 14.3 27.0906 14.3C27.7433 14.3 28.2721 13.7887 28.2721 13.1576C28.2721 12.5265 27.7433 12.0151 27.0906 12.0151Z" fill="#212A42"/>
<path fill-rule="evenodd" clip-rule="evenodd" d="M7.77268 11.1877C7 12.6547 7 14.5745 7 18.4141V21.6141C7 25.4538 7 27.3745 7.77268 28.8406C8.45268 30.1311 9.53756 31.1792 10.8712 31.8368C12.3883 32.584 14.3737 32.584 18.3444 32.584H21.6537C25.6244 32.584 27.6107 32.584 29.1268 31.8368C30.4615 31.1792 31.5454 30.1302 32.2254 28.8406C32.998 27.3736 32.998 25.4538 32.998 21.6141V18.4141C32.998 14.5745 32.998 12.6538 32.2254 11.1877C31.5454 9.89717 30.4605 8.84905 29.1268 8.1915C27.6098 7.44433 25.6244 7.44434 21.6537 7.44434H18.3444C14.3737 7.44434 12.3873 7.44433 10.8712 8.1915C9.53658 8.84905 8.45268 9.89811 7.77268 11.1877ZM21.6546 9.72924H18.3454C16.321 9.72924 14.9444 9.73113 13.881 9.81509C12.8449 9.89717 12.3151 10.0453 11.9454 10.2274C11.0556 10.666 10.3327 11.3651 9.87903 12.2255C9.69073 12.583 9.53756 13.0953 9.45268 14.0972C9.36585 15.1255 9.3639 16.4566 9.3639 18.4141V21.6141C9.3639 23.5717 9.36585 24.9028 9.45268 25.9311C9.53756 26.933 9.69073 27.4453 9.87903 27.8028C10.3327 28.6632 11.0556 29.3623 11.9454 29.8C12.3151 29.9821 12.8449 30.1302 13.881 30.2123C14.9444 30.2962 16.321 30.2981 18.3454 30.2981H21.6546C23.679 30.2981 25.0556 30.2962 26.119 30.2123C27.1551 30.1302 27.6849 29.9821 28.0546 29.8C28.9444 29.3613 29.6673 28.6623 30.12 27.8028C30.3083 27.4453 30.4615 26.933 30.5463 25.9311C30.6332 24.9028 30.6351 23.5717 30.6351 21.6141V18.4141C30.6351 16.4566 30.6332 15.1255 30.5463 14.0972C30.4615 13.0953 30.3083 12.583 30.12 12.2255C29.6663 11.3651 28.9434 10.666 28.0546 10.2274C27.6849 10.0453 27.1551 9.89717 26.119 9.81509C25.0556 9.73113 23.679 9.72924 21.6546 9.72924Z" fill="#212A42"/>
</svg>
