<svg width="17" height="17" viewBox="0 0 17 17" fill="none" xmlns="http://www.w3.org/2000/svg">
<path d="M10.625 6.72917C10.625 7.90278 9.67361 8.85417 8.5 8.85417C7.32639 8.85417 6.375 7.90278 6.375 6.72917C6.375 5.55557 7.32639 4.60417 8.5 4.60417C9.67361 4.60417 10.625 5.55557 10.625 6.72917Z" stroke="white" stroke-width="1.5"/>
<path d="M8.5 1.41667C11.375 1.41667 13.8125 3.84486 13.8125 6.79073C13.8125 9.78351 11.3353 11.8837 9.04719 13.3118C8.88044 13.4079 8.69187 13.4583 8.5 13.4583C8.30813 13.4583 8.11956 13.4079 7.95281 13.3118C5.66897 11.8698 3.1875 9.79385 3.1875 6.79073C3.1875 3.84486 5.62502 1.41667 8.5 1.41667Z" stroke="white" stroke-width="1.5"/>
<path d="M12.75 14.1667C12.75 14.9491 10.8472 15.5833 8.5 15.5833C6.15279 15.5833 4.25 14.9491 4.25 14.1667" stroke="white" stroke-width="1.5" stroke-linecap="round"/>
</svg>
