<svg width="40" height="40" viewBox="0 0 40 40" fill="none" xmlns="http://www.w3.org/2000/svg">
<path fill-rule="evenodd" clip-rule="evenodd" d="M32.5103 8.50908L6.99029 18.0244C5.26834 18.6286 5.26834 19.6855 6.67712 19.9877L13.0966 21.951L15.602 29.2008C15.9152 29.9557 15.7581 30.2578 16.5415 30.2578C17.1679 30.2578 17.481 29.9557 17.7942 29.6535C17.9503 29.503 19.36 28.143 20.9259 26.6324L27.5015 31.3147C28.7542 31.919 29.5366 31.6168 29.8498 30.2578L34.2332 10.4714C34.7025 8.81025 33.6069 7.9039 32.5113 8.50813L32.5103 8.50908ZM29.2225 13.0408L17.0108 23.7646L16.5415 28.7491L14.0361 21.4992L28.44 12.7387C29.0664 12.286 29.6927 12.5881 29.2225 13.0408Z" fill="#212A42"/>
</svg>
