<svg width="46" height="46" viewBox="0 0 46 46" fill="none" xmlns="http://www.w3.org/2000/svg">
<g clip-path="url(#clip0_5657_2647)">
<path d="M29.5 23.5H22.5C21.3954 23.5 20.5 24.3954 20.5 25.5V26.5C20.5 27.6046 21.3954 28.5 22.5 28.5H29.5C30.6046 28.5 31.5 27.6046 31.5 26.5V25.5C31.5 24.3954 30.6046 23.5 29.5 23.5Z" fill="white"/>
<path d="M17.5 23.5H16.5C15.3954 23.5 14.5 24.3954 14.5 25.5V26.5C14.5 27.6046 15.3954 28.5 16.5 28.5H17.5C18.6046 28.5 19.5 27.6046 19.5 26.5V25.5C19.5 24.3954 18.6046 23.5 17.5 23.5Z" fill="white"/>
<path d="M17.5 17.5H16.5C15.3954 17.5 14.5 18.3954 14.5 19.5V20.5C14.5 21.6046 15.3954 22.5 16.5 22.5H17.5C18.6046 22.5 19.5 21.6046 19.5 20.5V19.5C19.5 18.3954 18.6046 17.5 17.5 17.5Z" fill="white"/>
<path d="M29.5 17.5H22.5C21.3954 17.5 20.5 18.3954 20.5 19.5V20.5C20.5 21.6046 21.3954 22.5 22.5 22.5H29.5C30.6046 22.5 31.5 21.6046 31.5 20.5V19.5C31.5 18.3954 30.6046 17.5 29.5 17.5Z" fill="white"/>
</g>
<defs>
<clipPath id="clip0_5657_2647">
<rect width="17" height="11" fill="white" transform="translate(14.5 17.5)"/>
</clipPath>
</defs>
</svg>
