<svg width="46" height="46" viewBox="0 0 46 46" fill="none" xmlns="http://www.w3.org/2000/svg">
<g clip-path="url(#clip0_5657_2639)">
<path d="M20.5 17.5H19.5C18.3954 17.5 17.5 18.3954 17.5 19.5V20.5C17.5 21.6046 18.3954 22.5 19.5 22.5H20.5C21.6046 22.5 22.5 21.6046 22.5 20.5V19.5C22.5 18.3954 21.6046 17.5 20.5 17.5Z" fill="#FBAF5A"/>
<path d="M20.5 23.5H19.5C18.3954 23.5 17.5 24.3954 17.5 25.5V26.5C17.5 27.6046 18.3954 28.5 19.5 28.5H20.5C21.6046 28.5 22.5 27.6046 22.5 26.5V25.5C22.5 24.3954 21.6046 23.5 20.5 23.5Z" fill="#FBAF5A"/>
<path d="M26.5 23.5H25.5C24.3954 23.5 23.5 24.3954 23.5 25.5V26.5C23.5 27.6046 24.3954 28.5 25.5 28.5H26.5C27.6046 28.5 28.5 27.6046 28.5 26.5V25.5C28.5 24.3954 27.6046 23.5 26.5 23.5Z" fill="#FBAF5A"/>
<path d="M26.5 17.5H25.5C24.3954 17.5 23.5 18.3954 23.5 19.5V20.5C23.5 21.6046 24.3954 22.5 25.5 22.5H26.5C27.6046 22.5 28.5 21.6046 28.5 20.5V19.5C28.5 18.3954 27.6046 17.5 26.5 17.5Z" fill="#FBAF5A"/>
</g>
<defs>
<clipPath id="clip0_5657_2639">
<rect width="11" height="11" fill="white" transform="translate(17.5 17.5)"/>
</clipPath>
</defs>
</svg>
