<svg width="40" height="40" viewBox="0 0 40 40" fill="none" xmlns="http://www.w3.org/2000/svg">
<path fill-rule="evenodd" clip-rule="evenodd" d="M9.11992 20.0141C9.11992 14.0273 14.1385 9.17451 20.3297 9.17451C26.5209 9.17451 31.5394 14.0273 31.5394 20.0141C31.5394 26.0009 26.5209 30.8538 20.3297 30.8538C18.1248 30.8538 16.0711 30.2396 14.3394 29.1783C14.0175 28.9811 13.6224 28.9283 13.2565 29.0339L9.45943 30.1302L10.8887 26.8953C11.0575 26.5132 11.0233 26.0755 10.797 25.7217C9.73358 24.0651 9.11992 22.1113 9.11992 20.0151V20.0141ZM20.3297 6.62451C12.6819 6.62451 6.48187 12.6198 6.48187 20.0151C6.48187 22.3594 7.10626 24.566 8.20285 26.4839L5.9287 31.6292C5.72773 32.0839 5.81651 32.6104 6.15699 32.9792C6.49748 33.3481 7.02821 33.4934 7.51797 33.3519L13.4516 31.6396C15.4789 32.7632 17.8282 33.4056 20.3287 33.4056C27.9765 33.4056 34.1765 27.4104 34.1765 20.0151C34.1765 12.6198 27.9765 6.62451 20.3287 6.62451H20.3297ZM23.3531 22.7972L21.6194 23.9773C20.8077 23.5302 19.9102 22.9056 19.0097 22.0358C18.1092 21.166 17.3804 20.1962 16.8682 19.3396L17.9697 18.4358C18.4419 18.0481 18.5716 17.3934 18.2809 16.8641L16.877 14.3132C16.6877 13.9698 16.3472 13.7283 15.9511 13.6585C15.555 13.5877 15.1482 13.6962 14.8448 13.9519L14.4282 14.3028C13.4272 15.1472 12.836 16.5349 13.3268 17.9406C13.835 19.3972 14.9209 21.6896 17.1433 23.8396C19.5355 26.1528 21.9648 27.0632 23.3853 27.417C24.5297 27.7019 25.6136 27.3198 26.3765 26.7189L27.157 26.1038C27.4907 25.8406 27.6711 25.4368 27.6389 25.0217C27.6077 24.6066 27.3687 24.2321 26.9989 24.0189L24.7853 22.7434C24.3385 22.4858 23.7765 22.5066 23.3511 22.7962L23.3531 22.7972Z" fill="#212A42"/>
</svg>
